<svg width="84" height="20" viewBox="0 0 84 20" fill="none" xmlns="http://www.w3.org/2000/svg">
<path fill-rule="evenodd" clip-rule="evenodd" d="M65.9082 9.00532C66.1321 3.80781 70.3874 -0.223592 75.3785 0.00963004C80.4016 0.242852 84.2729 4.67406 83.9849 9.83825C83.761 15.0358 79.5057 19.0672 74.5146 18.8339C73.2669 18.8006 72.0831 18.4674 71.0273 17.9344L67.4439 19.9001L68.7237 16.2685C66.868 14.4694 65.7802 11.8373 65.9082 9.00532ZM76.7862 8.40558C77.1061 9.37178 78.5139 9.50505 79.0258 8.6388C79.3457 8.07241 79.2178 7.6726 79.1538 7.47269C79.1538 7.47269 78.098 4.30754 74.9305 4.30754C71.7631 4.30754 70.7073 7.47269 70.7073 7.47269C70.6433 7.6726 70.5153 8.07241 70.8353 8.6388C71.3472 9.50505 72.7549 9.37178 73.0749 8.40558C73.0749 8.40558 73.4588 6.93962 74.9305 6.93962C76.4023 6.97293 76.7862 8.40558 76.7862 8.40558Z" fill="#FAB221"/>
<path fill-rule="evenodd" clip-rule="evenodd" d="M0 18.5339C0 19.2669 0.543903 19.8333 1.24778 19.8333H3.87131C6.87877 19.8333 9.08637 17.6677 9.08637 14.7024V14.6691C9.08637 11.7038 6.91076 9.57153 3.87131 9.57153H1.24778C0.543903 9.57153 0 10.1379 0 10.8709V18.5339ZM6.49484 14.7024C6.49484 16.3017 5.43903 17.4011 3.87131 17.4011H2.49555V11.9371H3.87131C5.43903 11.9371 6.49484 13.0366 6.49484 14.6691V14.7024Z" fill="white"/>
<path fill-rule="evenodd" clip-rule="evenodd" d="M9.7583 14.7358C9.7583 17.7344 11.9979 20 14.9734 20C17.9168 20 20.2204 17.6677 20.2204 14.7025V14.6692C20.2204 11.6706 17.9808 9.40503 15.0054 9.40503C12.0619 9.40503 9.7583 11.7372 9.7583 14.7025V14.7358ZM12.3818 14.6692C12.3818 13.0366 13.5016 11.8372 14.9734 11.8372C16.4771 11.8372 17.5969 13.07 17.5969 14.7025V14.7358C17.5969 16.3684 16.4771 17.5678 15.0054 17.5678C13.5016 17.5678 12.3818 16.3351 12.3818 14.7025V14.6692Z" fill="white"/>
<path fill-rule="evenodd" clip-rule="evenodd" d="M21.2762 18.6005C21.2762 19.3335 21.8201 19.8999 22.524 19.8999C23.2278 19.8999 23.8037 19.3335 23.8037 18.6339V16.9014H25.1475C27.611 16.9014 29.1788 15.4687 29.1788 13.2364V13.2031C29.1788 11.0042 27.675 9.57153 25.3395 9.57153H22.524C21.8201 9.57153 21.2762 10.1379 21.2762 10.8709V18.6005ZM26.6192 13.2365C26.6192 14.0028 26.0753 14.5025 25.2115 14.5025V14.4692H23.7717V11.9371H25.1475C25.6914 11.9371 26.6192 12.1037 26.6192 13.2031V13.2365Z" fill="white"/>
<path fill-rule="evenodd" clip-rule="evenodd" d="M29.9467 18.6005C29.9467 19.3335 30.4906 19.8999 31.1944 19.8999C31.8983 19.8999 32.4422 19.3335 32.4742 18.6339V16.9014H33.818C36.2815 16.9014 37.8492 15.4687 37.8492 13.2364V13.2031C37.8492 11.0042 36.3455 9.57153 34.0099 9.57153H31.1944C30.4906 9.57153 29.9467 10.1379 29.9467 10.8709V18.6005ZM35.2897 13.2365C35.2897 14.0028 34.7458 14.5025 33.882 14.5025V14.4692H32.4422V11.9371H33.818C34.3619 11.9371 35.2897 12.1037 35.2897 13.2031V13.2365Z" fill="white"/>
<path fill-rule="evenodd" clip-rule="evenodd" d="M39.8328 19.8334C39.1289 19.8334 38.585 19.267 38.585 18.534V10.7711C38.585 10.0381 39.1289 9.47168 39.8328 9.47168C40.5367 9.47168 41.0806 10.0381 41.0806 10.7711V17.4012H44.6959C45.3358 17.4012 45.8477 17.9343 45.8477 18.6006C45.8477 19.267 45.3358 19.8001 44.6959 19.8001H39.8328V19.8334Z" fill="white"/>
<path fill-rule="evenodd" clip-rule="evenodd" d="M47.8314 19.8333C47.1275 19.8333 46.5836 19.2669 46.5836 18.5339V10.8709C46.5836 10.1379 47.1275 9.57153 47.8314 9.57153H53.0785C53.7183 9.57153 54.2302 10.1046 54.2302 10.771C54.2302 11.4373 53.7183 11.9371 53.0785 11.9371H49.1112V13.4697H52.4706C53.1105 13.4697 53.6224 14.0027 53.6224 14.6691C53.6224 15.3354 53.1105 15.8685 52.4706 15.8685H49.1112V17.4677H53.1744C53.8143 17.4677 54.3262 18.0008 54.3262 18.6672C54.3262 19.3335 53.8143 19.8333 53.1744 19.8333H47.8314Z" fill="white"/>
<path fill-rule="evenodd" clip-rule="evenodd" d="M61.0771 19.2669C61.397 19.7 61.781 19.8999 62.2609 19.8999C62.8368 19.8999 63.4767 19.4335 63.4447 18.7005C63.4447 18.2674 63.2527 18.0008 63.0607 17.7343L61.813 16.1351C62.9647 15.5353 63.5726 14.5025 63.5726 13.0699V13.0365C63.5726 12.0703 63.2847 11.2374 62.7088 10.6377C62.0369 9.93802 61.0131 9.57153 59.7973 9.57153H56.5339C55.83 9.57153 55.2861 10.1379 55.2861 10.8709V18.6339C55.2861 19.3668 55.83 19.9332 56.5339 19.9332C57.2378 19.9332 57.7817 19.3668 57.7817 18.6339V16.7014H59.1254L61.0771 19.2669ZM61.0451 13.1365C61.0451 13.8695 60.5332 14.3026 59.6694 14.3026H57.7817V11.9371H59.6374C60.2773 11.9371 61.0451 12.137 61.0451 13.1032V13.1365Z" fill="white"/>
</svg>
