<svg width="222" height="51" viewBox="0 0 222 51" fill="none" xmlns="http://www.w3.org/2000/svg">
<mask id="mask0_655_2785" style="mask-type:alpha" maskUnits="userSpaceOnUse" x="173" y="0" width="49" height="51">
<path fill-rule="evenodd" clip-rule="evenodd" d="M173.973 0H221.85V50.7982H173.973V0Z" fill="white"/>
</mask>
<g mask="url(#mask0_655_2785)">
<path fill-rule="evenodd" clip-rule="evenodd" d="M208.592 22.0355C207.272 24.2037 203.538 23.9199 202.697 21.4323C202.697 21.4323 201.695 17.74 197.83 17.7103C193.968 17.74 192.965 21.4323 192.965 21.4323C192.125 23.9199 188.391 24.2037 187.077 22.0355C186.203 20.6048 186.559 19.593 186.701 19.1019C186.701 19.1019 189.459 11.0121 197.819 11.0121H197.83H197.842C206.205 11.0121 208.964 19.1019 208.964 19.1019C209.104 19.593 209.457 20.6048 208.592 22.0355ZM199.034 0.0268244C185.827 -0.595074 174.618 9.6722 173.999 22.9589C173.661 30.2127 176.564 36.8514 181.402 41.4995L178.076 50.7982L187.575 45.8162C190.38 47.1679 193.491 47.9912 196.794 48.1467C209.998 48.7694 221.206 38.5004 221.824 25.2129C222.442 11.9253 212.239 0.649573 199.034 0.0268244Z" fill="#333333"/>
</g>
<path fill-rule="evenodd" clip-rule="evenodd" d="M10.2811 44.4319C14.418 44.4319 17.197 41.6648 17.197 37.546V37.4738C17.197 33.3125 14.418 30.5165 10.2811 30.5165H6.63489V44.4319H10.2811ZM3.31693 50.5711C1.45749 50.5711 0 49.1048 0 47.234V27.7147C0 25.843 1.45749 24.3775 3.31693 24.3775H10.281C18.2769 24.3775 24.0798 29.8556 24.0798 37.4025V37.4739C24.0798 45.0633 18.2769 50.5711 10.281 50.5711H3.31693Z" fill="#333333"/>
<path fill-rule="evenodd" clip-rule="evenodd" d="M39.5591 30.1942C35.6359 30.1942 32.6787 33.2927 32.6787 37.4022V37.4735C32.6787 41.6246 35.6671 44.7536 39.63 44.7536C43.5524 44.7536 46.5105 41.6552 46.5105 37.5457V37.4735C46.5105 33.3241 43.522 30.1942 39.5591 30.1942ZM39.5591 51C31.7126 51 25.7957 45.216 25.7957 37.5459V37.4737C25.7957 29.8903 31.8722 23.9483 39.63 23.9483C47.4764 23.9483 53.3934 29.7331 53.3934 37.4024V37.4737C53.3934 45.0588 47.3168 51 39.5591 51Z" fill="#333333"/>
<path fill-rule="evenodd" clip-rule="evenodd" d="M66.5971 36.9969C68.877 36.9969 70.3506 35.7395 70.3506 33.7931V33.7208C70.3506 30.9325 67.9321 30.517 66.4907 30.517H62.8436V36.9969H66.5971ZM59.5262 50.7856C57.6667 50.7856 56.2092 49.3192 56.2092 47.4484V27.715C56.2092 25.8434 57.6667 24.3778 59.5262 24.3778H66.9521C73.0903 24.3778 77.0566 28.003 77.0566 33.6137V33.6851C77.0566 39.3824 72.8817 43.0637 66.4201 43.0637H62.8439V47.4484C62.8439 49.3192 61.3873 50.7856 59.5262 50.7856Z" fill="#333333"/>
<path fill-rule="evenodd" clip-rule="evenodd" d="M89.4425 36.9969C91.7224 36.9969 93.1951 35.7395 93.1951 33.7931V33.7208C93.1951 30.9325 90.7775 30.517 89.3361 30.517H85.689V36.9969H89.4425ZM82.3711 50.7856C80.5117 50.7856 79.0542 49.3192 79.0542 47.4484V27.715C79.0542 25.8434 80.5117 24.3778 82.3711 24.3778H89.7971C95.9352 24.3778 99.9015 28.003 99.9015 33.6137V33.6851C99.9015 39.3824 95.7267 43.0637 89.2651 43.0637H85.6889V47.4484C85.6889 49.3192 84.2314 50.7856 82.3711 50.7856Z" fill="#333333"/>
<path fill-rule="evenodd" clip-rule="evenodd" d="M105.217 50.571C103.358 50.571 101.9 49.1054 101.9 47.2338V27.5004C101.9 25.6296 103.358 24.1632 105.217 24.1632C107.078 24.1632 108.534 25.6296 108.534 27.5004V44.397H118.081C119.801 44.397 121.148 45.7529 121.148 47.4836C121.148 49.215 119.801 50.571 118.081 50.571H105.217Z" fill="#333333"/>
<path fill-rule="evenodd" clip-rule="evenodd" d="M126.321 50.5709C124.462 50.5709 123.004 49.1053 123.004 47.2337V27.7144C123.004 25.8436 124.462 24.3772 126.321 24.3772H140.108C141.78 24.3772 143.141 25.7459 143.141 27.4289C143.141 29.0916 141.78 30.4441 140.108 30.4441H129.603V34.3514H138.509C140.181 34.3514 141.541 35.7209 141.541 37.4023C141.541 39.0658 140.181 40.4183 138.509 40.4183H129.603V44.504H140.286C141.959 44.504 143.318 45.8727 143.318 47.5557C143.318 49.2183 141.959 50.5709 140.286 50.5709H126.321Z" fill="#333333"/>
<path fill-rule="evenodd" clip-rule="evenodd" d="M157.517 36.5322C159.779 36.5322 161.129 35.4277 161.129 33.5773V33.506C161.129 31.0354 159.107 30.5163 157.412 30.5163H152.556V36.5322H157.517ZM164.376 50.7857C163.116 50.7857 162.083 50.2446 161.217 49.1316L156.063 42.5634H152.556V47.4486C152.556 49.3194 151.099 50.7857 149.238 50.7857C147.379 50.7857 145.921 49.3194 145.921 47.4486V27.7152C145.921 25.8435 147.379 24.378 149.238 24.378H157.873C161.122 24.378 163.77 25.3151 165.532 27.0873C167.038 28.6021 167.834 30.7236 167.834 33.2205V33.2919C167.834 36.9086 166.239 39.6009 163.209 41.1234L166.529 45.1819C167.071 45.8726 167.55 46.5743 167.55 47.6635C167.55 49.6176 165.936 50.7857 164.376 50.7857Z" fill="#333333"/>
</svg>
