<svg width="13" height="13" viewBox="0 0 13 13" fill="none" xmlns="http://www.w3.org/2000/svg">
<path fill-rule="evenodd" clip-rule="evenodd" d="M11.2136 12.5186C11.703 12.5186 12.1001 12.1337 12.1001 11.6585V1.37862C12.1001 0.904607 11.703 0.518555 11.2136 0.518555H0.987188C0.497229 0.518555 0.100098 0.904607 0.100098 1.37862V11.6585C0.100098 12.1337 0.497229 12.5186 0.987188 12.5186H11.2136ZM6.55305 5.91284C6.79403 5.54328 7.22498 5.01857 8.18645 5.01857C9.37846 5.01857 10.2735 5.79312 10.2735 7.45705V10.5632H8.46063V7.66474C8.46063 6.93723 8.19936 6.43939 7.5428 6.43939C7.04239 6.43939 6.74362 6.77596 6.61206 7.09849C6.56473 7.21516 6.55305 7.37459 6.55305 7.53768V10.5632H4.74075C4.74075 10.5632 4.76473 5.65385 4.74075 5.14624H6.55305V5.91284ZM6.55305 5.91284C6.54936 5.91895 6.54506 5.92567 6.54075 5.93056H6.55305V5.91284ZM2.84338 2.53342C2.2237 2.53342 1.81797 2.93841 1.81797 3.46923C1.81797 3.98906 2.21141 4.40626 2.8194 4.40626H2.83108C3.46366 4.40626 3.85711 3.98906 3.85711 3.46923C3.84542 2.93841 3.46366 2.53342 2.84338 2.53342ZM3.73747 10.5634H1.92518V5.14648H3.73747V10.5634Z" fill="#333333"/>
</svg>
