<svg width="24" height="20" viewBox="0 0 24 20" fill="none" xmlns="http://www.w3.org/2000/svg">
<path d="M23.9999 8.24023V18.0402C23.9999 18.6302 23.6499 19.1602 23.1099 19.3902C22.5999 19.6302 21.9499 19.5402 21.5199 19.1202L18.9699 16.7002H12.3499C10.9199 16.7002 9.72993 15.7002 9.42993 14.3702H12.6799C15.5399 14.3702 17.8699 12.0402 17.8699 9.17023V5.24023H20.9999C22.6499 5.24023 23.9999 6.59023 23.9999 8.24023Z" fill="#7D04F6"/>
<path d="M12.68 0H3.19C1.43 0 0 1.43 0 3.19V13.93C0 14.54 0.36 15.08 0.92 15.33C1.47 15.56 2.13 15.45 2.57 15.04L5.37 12.37H12.68C14.44 12.37 15.87 10.93 15.87 9.17V3.19C15.87 1.43 14.44 0 12.68 0ZM10.46 5.67L8.01 8.12C7.82 8.31 7.57 8.41 7.3 8.41C7.03 8.41 6.78 8.3 6.59 8.12L5.37 6.9C4.98 6.51 4.98 5.88 5.37 5.49C5.76 5.1 6.39 5.1 6.78 5.49L7.29 6.01L9.03 4.27C9.42 3.88 10.05 3.88 10.44 4.27C10.83 4.66 10.83 5.29 10.44 5.68L10.46 5.67Z" fill="#7D04F6"/>
</svg>
