<svg width="24" height="25" viewBox="0 0 24 25" fill="none" xmlns="http://www.w3.org/2000/svg">
<rect width="24" height="24.1748" rx="12" fill="#E34F45"/>
<path fill-rule="evenodd" clip-rule="evenodd" d="M16.0887 7.29289C15.6982 6.90237 15.065 6.90237 14.6745 7.29289L11.7166 10.2508L8.88456 7.41876C8.49404 7.02824 7.86087 7.02824 7.47035 7.41876L7.41859 7.47052C7.02807 7.86104 7.02807 8.49421 7.41859 8.88473L10.2506 11.7168L7.29289 14.6745C6.90237 15.065 6.90237 15.6982 7.29289 16.0887L7.34465 16.1405C7.73517 16.531 8.36834 16.531 8.75886 16.1405L11.7166 13.1827L14.8002 16.2663C15.1907 16.6569 15.8239 16.6569 16.2144 16.2663L16.2662 16.2146C16.6567 15.8241 16.6567 15.1909 16.2662 14.8004L13.1826 11.7168L16.1405 8.75886C16.531 8.36834 16.531 7.73517 16.1405 7.34465L16.0887 7.29289Z" fill="white"/>
</svg>
