<svg width="104" height="82" viewBox="0 0 104 82" fill="none" xmlns="http://www.w3.org/2000/svg">
<path d="M88.8636 43.5324H74.404C71.8664 39.0938 66.9403 36.0744 61.2978 36.0744H43.7632C38.1107 36.0744 33.1946 39.0938 30.657 43.5324H15.8192C7.58924 43.5324 0.891846 49.8283 0.891846 57.572V72.5832C0.891846 77.46 5.10136 81.4318 10.2762 81.4318H94.4166C99.5914 81.4318 103.801 77.46 103.801 72.5832V57.572C103.801 49.8283 97.1035 43.5324 88.8736 43.5324H88.8636ZM10.2662 75.7074C8.38538 75.7074 6.85283 74.3072 6.85283 72.5737V57.5625C6.85283 52.9715 10.8733 49.2378 15.8092 49.2378H28.8856C28.8557 49.6092 28.8259 49.9807 28.8259 50.3522V75.7074H10.2563H10.2662ZM70.2542 75.7074H34.8068V50.3522C34.8068 45.6278 38.8272 41.7798 43.7632 41.7798H61.2978C66.2338 41.7798 70.2542 45.6278 70.2542 50.3522V75.7074ZM97.82 72.5832C97.82 74.3072 96.2875 75.7169 94.4066 75.7169H76.2152V50.3617C76.2152 49.9902 76.1853 49.6188 76.1555 49.2473H88.8537C93.7896 49.2473 97.8101 52.9811 97.8101 57.572V72.5832H97.82Z" fill="white"/>
<path d="M52.5302 34.6363C62.3027 34.6363 70.254 27.0259 70.254 17.6725C70.254 8.31905 62.3027 0.708679 52.5302 0.708679C42.7578 0.708679 34.8065 8.31905 34.8065 17.6725C34.8065 27.0259 42.7578 34.6363 52.5302 34.6363ZM52.5302 6.43313C59.0087 6.43313 64.283 11.4813 64.283 17.682C64.283 23.8827 59.0087 28.9309 52.5302 28.9309C46.0518 28.9309 40.7775 23.8827 40.7775 17.682C40.7775 11.4813 46.0518 6.43313 52.5302 6.43313Z" fill="white"/>
<path d="M21.2719 41.7894C28.5166 41.7894 34.4179 36.1507 34.4179 29.2071C34.4179 22.2634 28.5166 16.6247 21.2719 16.6247C14.0271 16.6247 8.12585 22.2729 8.12585 29.2071C8.12585 36.1412 14.0172 41.7894 21.2719 41.7894ZM21.2719 22.3396C25.2226 22.3396 28.4469 25.4162 28.4469 29.2071C28.4469 32.998 25.2326 36.0745 21.2719 36.0745C17.3111 36.0745 14.0968 32.998 14.0968 29.2071C14.0968 25.4162 17.3111 22.3396 21.2719 22.3396Z" fill="white"/>
<path d="M83.9083 41.7894C91.1531 41.7894 97.0543 36.1507 97.0543 29.2071C97.0543 22.2634 91.163 16.6247 83.9083 16.6247C76.6537 16.6247 70.7623 22.2729 70.7623 29.2071C70.7623 36.1412 76.6537 41.7894 83.9083 41.7894ZM83.9083 22.3396C87.8591 22.3396 91.0834 25.4162 91.0834 29.2071C91.0834 32.998 87.8691 36.0745 83.9083 36.0745C79.9476 36.0745 76.7333 32.998 76.7333 29.2071C76.7333 25.4162 79.9476 22.3396 83.9083 22.3396Z" fill="white"/>
</svg>
