<svg width="97" height="93" viewBox="0 0 97 93" fill="none" xmlns="http://www.w3.org/2000/svg">
<path d="M25.1957 20.644C25.5838 20.3202 25.9719 19.9868 26.3699 19.6725C28.0916 24.5492 31.2064 30.4832 36.0229 29.9498C39.6752 29.5498 45.2082 26.4732 48.4723 24.4825C48.4325 24.6064 48.3927 24.7302 48.3629 24.854C47.4374 27.921 46.701 30.3499 48.9003 33.4264C49.8357 34.7313 51.2588 35.7886 52.6321 36.8173C53.2292 37.2649 54.1447 37.9412 54.6324 38.427C54.1447 39.0842 52.7316 40.2748 48.8406 42.3131C48.5619 42.456 48.3131 42.5893 48.1041 42.7036C46.2233 43.7228 45.2779 45.8659 45.6859 47.9804C48.5022 48.9805 50.811 50.7807 52.3634 53.1143C53.6073 53.2762 55.0802 53.3143 56.8317 53.1334L59.011 52.9048C66.1264 52.1523 69.3706 51.8094 74.217 53.8096C76.3666 54.6954 78.337 55.1431 80.1183 55.1431C81.4618 55.1431 82.6858 54.8955 83.8004 54.3907C85.3429 53.6953 87.4028 52.1428 88.4279 48.7424C90.0102 43.5037 86.2584 38.4174 77.2722 33.6169L76.9935 33.474H76.9537C76.6751 33.2264 75.4709 31.9881 74.9037 28.2163C73.4309 30.3975 72.0177 32.6263 70.7041 34.9028C71.9779 37.3411 73.5503 38.3222 74.5554 38.7127C77.4712 40.2938 83.6213 44.0371 82.6858 47.1517C82.3574 48.2376 81.8698 48.9329 81.2428 49.2186C80.2974 49.6473 78.6355 49.4091 76.5756 48.5614C70.2862 45.9707 65.798 46.4469 58.3542 47.2279L56.1948 47.4565C53.9158 47.6851 52.6221 47.428 51.9952 47.1708C55.8863 45.1229 59.9963 42.6274 60.7128 39.0842C61.3298 36.0553 58.5334 33.9693 56.2943 32.3025C55.329 31.5786 54.2343 30.769 53.8263 30.1975C53.2889 29.445 53.2192 29.3402 54.095 26.4447C54.2642 25.8732 54.4632 25.235 54.6622 24.5302C55.5081 21.5203 54.5527 19.8249 53.5974 18.9295C51.6369 17.0817 48.8605 17.7294 48.3231 17.8818L47.8554 18.0152L47.4573 18.2819C44.0439 20.5393 38.2023 23.8158 35.5652 24.2444C34.4805 23.5586 32.7389 20.044 31.5348 16.2626C37.3664 13.0146 44.1434 11.1382 51.3682 11.1382C52.8311 11.1382 54.2741 11.2239 55.7071 11.3763C56.0057 9.4142 56.7819 7.53781 57.9761 5.89C55.8166 5.58521 53.6173 5.42328 51.3682 5.42328C39.5956 5.42328 28.8578 9.71899 20.7672 16.7579C22.5585 17.7199 24.0711 19.0438 25.2056 20.6345L25.1957 20.644Z" fill="white"/>
<path d="M82.1486 16.9294C81.7406 18.2343 81.1136 19.4916 80.2478 20.6822C79.8896 21.168 79.5413 21.6537 79.193 22.1395C86.4377 29.0069 90.9457 38.5223 90.9457 49.0282C90.9457 63.7156 82.1585 76.4694 69.3608 82.7558C64.4248 83.813 60.2153 80.8222 59.6979 79.5935C58.2549 76.155 54.523 73.4595 51.5674 72.5737C50.7216 72.326 49.8657 72.0594 49.0099 71.7165C47.8854 73.3071 46.7907 74.9263 45.7159 76.5551C47.2186 77.2504 48.6218 77.679 49.7861 78.0314C51.1097 78.4315 53.4184 79.965 54.1548 81.7176C54.8216 83.2987 56.4039 84.9655 58.5733 86.28C56.2347 86.6896 53.8264 86.9181 51.3585 86.9181C41.0287 86.9181 31.6245 83.1082 24.5689 76.8885C26.1114 73.2404 28.0818 69.7543 29.7934 67.4303C28.44 65.5158 27.6737 63.4393 27.4449 61.3439C24.3599 64.1251 21.7924 68.7447 20.1404 72.2689C20.031 72.1355 19.9314 72.0117 19.822 71.8784C18.6974 67.4493 18.8069 63.6584 20.1603 60.6105C21.1754 58.334 23.4045 55.7432 25.365 53.4477C27.1165 51.4094 28.4997 49.7902 29.1565 48.3234C30.709 44.8373 27.5344 41.0273 24.1708 36.9983C24.131 36.9507 24.1011 36.9126 24.0613 36.8649C22.8671 38.5032 21.6929 40.1606 20.5484 41.8274C21.8421 43.4085 23.3349 45.3516 23.5538 46.285C23.096 47.0756 21.8521 48.5234 20.7475 49.8188C18.5283 52.4095 16.0105 55.3432 14.6671 58.3626C14.2989 59.1817 14.0202 60.0294 13.7814 60.9057C12.4877 57.1624 11.7712 53.1715 11.7712 49.0187C11.7712 48.8377 11.7811 48.6567 11.7911 48.4758C10.2187 45.7516 8.48715 43.1228 6.67597 40.5511C6.10873 43.2942 5.81018 46.1231 5.81018 49.0187C5.81018 73.0595 26.2507 92.6236 51.3684 92.6236C76.4861 92.6236 96.9266 73.0595 96.9266 49.0187C96.9266 36.3316 91.2343 24.8922 82.1585 16.9103L82.1486 16.9294Z" fill="white"/>
<path d="M82.566 11.6047C81.6704 5.05162 75.988 0.289181 68.6239 0.279656C67.1411 0.260606 65.2603 0.651122 63.4789 1.45121C61.1403 2.49895 59.2893 4.06103 57.9558 5.88981C56.7616 7.53761 55.9854 9.414 55.6869 11.3761C55.2092 14.567 55.9754 17.9673 58.1847 20.9201C61.618 25.5206 64.9617 30.1782 67.7083 35.2074C68.0069 35.7598 68.395 36.1694 69.1016 36.1694C69.8081 36.1694 70.2062 35.7788 70.5147 35.2264C70.5744 35.1121 70.644 35.0073 70.7137 34.893C72.0273 32.6166 73.4404 30.3878 74.9133 28.2066C76.2965 26.1587 77.7296 24.1395 79.1825 22.1297C79.5308 21.6439 79.8791 21.1582 80.2373 20.6724C81.1131 19.4818 81.7301 18.2245 82.1381 16.9196C82.6655 15.2337 82.8148 13.4525 82.5561 11.5952L82.566 11.6047ZM77.7395 19.3675C77.5206 19.6723 77.3116 19.9771 77.1026 20.2819C76.2766 21.4534 75.4507 22.6345 74.6346 23.8156C73.2613 25.7968 71.888 27.7875 70.5246 29.7687C70.1564 30.302 69.8181 30.8735 69.4598 31.4641C69.3603 31.626 69.2707 31.7784 69.1712 31.9403C68.2557 30.4735 67.4695 29.0733 66.544 27.7494C64.5139 24.8443 62.4241 21.9773 60.3641 19.0913C58.732 16.8148 58.1847 14.2145 58.543 11.7667C58.8315 9.80453 59.6973 7.94717 61.1005 6.43272C62.1156 5.33736 63.3993 4.42296 64.9418 3.79432C71.3606 1.17498 78.7148 5.10877 79.7199 11.7095C79.889 12.8239 79.8691 13.8812 79.69 14.9003C79.4114 16.4719 78.7546 17.9483 77.7495 19.358L77.7395 19.3675Z" fill="white"/>
<path d="M75.6699 12.1858C75.1525 9.21401 72.4158 6.91852 69.1517 6.91852C67.9674 6.91852 66.8529 7.21379 65.8975 7.7186C64.0167 8.71872 62.7031 10.5475 62.514 12.6906C62.4941 12.862 62.4841 13.0335 62.4841 13.2144C62.4841 16.6243 65.3004 19.4151 68.8233 19.558C68.9128 19.558 69.0024 19.5675 69.092 19.5675C72.784 19.5675 75.7595 16.7291 75.7595 13.1954C75.7595 12.8525 75.7197 12.5096 75.66 12.1762L75.6699 12.1858ZM69.1119 16.853C69.1119 16.853 69.092 16.853 69.082 16.853C67.1315 16.8149 65.5791 15.4147 65.3701 13.624C65.3502 13.4716 65.3303 13.3192 65.3303 13.1573C65.3701 11.2047 67.0917 9.6331 69.1517 9.65215C71.2415 9.6712 72.9233 11.3095 72.8935 13.3002C72.8636 15.2528 71.132 16.872 69.1019 16.853H69.1119Z" fill="white"/>
<path d="M54.3638 58.4196C54.0951 56.467 53.3985 54.6763 52.3636 53.1238C50.8111 50.7902 48.5024 48.99 45.6861 47.9899C44.0739 47.4184 42.3125 47.1041 40.4316 47.1041C38.9489 47.085 37.068 47.4755 35.2867 48.2756C29.7337 50.7711 26.8776 56.0765 27.4548 61.3628C27.6837 63.4487 28.45 65.5347 29.8034 67.4492C29.873 67.5444 29.9328 67.6492 30.0024 67.7445C33.4357 72.345 36.7794 77.0026 39.5261 82.0318C39.8246 82.5842 40.2227 82.9938 40.9193 82.9938C41.6258 82.9938 42.0239 82.6033 42.3324 82.0508C43.3972 80.1839 44.5416 78.3647 45.7259 76.5645C46.7907 74.9357 47.8854 73.3165 49.0198 71.7259C50.0249 70.3067 51.0301 68.897 52.0551 67.4968C54.0454 64.7727 54.8315 61.7247 54.3837 58.4196H54.3638ZM49.5274 66.1824C48.5223 67.5921 47.5371 69.0208 46.5519 70.44C45.4472 72.0211 44.3526 73.6118 43.2579 75.2024C42.9394 75.6596 42.621 76.1264 42.3025 76.5835C41.8348 77.2693 41.4268 77.9837 40.9491 78.7552C40.0336 77.2884 39.2474 75.8882 38.3219 74.5643C36.2918 71.6592 34.202 68.7922 32.142 65.9062C31.9828 65.6871 31.8534 65.4585 31.7141 65.2299C30.5995 63.4011 30.1218 61.4104 30.2213 59.4769C30.4204 55.7431 32.749 52.2284 36.7098 50.6092C43.1285 47.9899 50.4827 51.9236 51.4878 58.5244C51.9157 61.3342 51.1694 63.8393 49.5174 66.1729L49.5274 66.1824Z" fill="white"/>
<path d="M40.9493 53.7332C37.6255 53.7332 34.8788 56.0287 34.3713 59.048C34.3215 59.3719 34.2817 59.6957 34.2817 60.0291C34.2817 63.5247 37.2473 66.3822 40.8995 66.3917C41.626 66.3917 42.3226 66.2774 42.9694 66.0774C45.6464 65.2487 47.5671 62.858 47.5671 60.0196C47.5671 56.562 44.5916 53.7332 40.9493 53.7332ZM41.1185 63.6486C41.0488 63.6486 40.9791 63.6676 40.9095 63.6676C38.8296 63.639 37.1776 62.0674 37.1478 60.1053C37.1478 60.0577 37.1378 60.0196 37.1378 59.9719C37.1776 58.0194 38.8993 56.4477 40.9592 56.4668C43.0491 56.4858 44.7309 58.1241 44.701 60.1148C44.6712 62.0007 43.059 63.5533 41.1284 63.6486H41.1185Z" fill="white"/>
<path d="M27.4546 26.3206C27.166 24.2156 26.3699 22.2916 25.1956 20.6533C24.0512 19.0627 22.5386 17.7387 20.7572 16.7767C18.6674 15.6528 16.2094 15.0051 13.5125 15.0051C12.0297 14.986 10.1489 15.3765 8.36754 16.1766C0.505811 19.7103 -1.99203 28.8637 3.07331 35.6455C4.2874 37.2742 5.49154 38.9125 6.66582 40.5698C8.48696 43.1415 10.2185 45.7704 11.7809 48.4945C12.0496 48.9708 12.3283 49.447 12.587 49.9232C12.8855 50.4757 13.2836 50.8853 13.9802 50.8853C14.6868 50.8853 15.0848 50.4947 15.3933 49.9423C16.9756 47.161 18.7172 44.4845 20.5283 41.8366C21.6728 40.1698 22.8471 38.5125 24.0412 36.8742C24.3995 36.3789 24.7578 35.8836 25.116 35.3883C27.1063 32.6642 27.8925 29.6162 27.4447 26.3111L27.4546 26.3206ZM22.6281 34.0834C22.4988 34.2644 22.3694 34.4549 22.24 34.6358C21.0657 36.3027 19.9014 37.9695 18.7371 39.6459C17.6225 41.2556 16.5179 42.8653 15.4033 44.4845C14.9356 45.1703 14.5276 45.8847 14.0499 46.6562C13.403 45.618 12.8059 44.6274 12.1889 43.6559C11.9402 43.2558 11.6914 42.8558 11.4227 42.4653C10.1588 40.646 8.86512 38.8458 7.57142 37.0456C6.7952 35.9693 6.01897 34.893 5.24275 33.8072C1.35169 28.378 3.54104 21.0724 9.82047 18.5102C12.8059 17.291 15.9904 17.5006 18.6475 18.7293C20.4587 19.5675 22.0111 20.8724 23.0958 22.5392C23.8422 23.6822 24.3696 24.9871 24.5886 26.4159C25.0165 29.2257 24.2701 31.7307 22.6182 34.0643L22.6281 34.0834Z" fill="white"/>
<path d="M20.4387 26.3875C19.8515 24.1968 18.0602 22.4633 15.7714 21.8632C15.2141 21.7204 14.6369 21.6346 14.0298 21.6346C10.3478 21.6346 7.37226 24.4445 7.3623 27.9306C7.3623 29.6641 8.08877 31.2357 9.26305 32.3787C10.4672 33.5503 12.1391 34.2837 13.9801 34.2932C14.3085 34.2932 14.6369 34.2646 14.9553 34.217C15.1046 34.1979 15.2539 34.1789 15.4032 34.1408C17.9906 33.6074 20.0207 31.6453 20.5183 29.1498C20.5979 28.7497 20.6476 28.3402 20.6476 27.9115C20.6476 27.3781 20.568 26.8733 20.4387 26.378V26.3875ZM14 31.5691C12.5073 31.55 11.2434 30.7309 10.6264 29.5403C10.3677 29.0355 10.2085 28.4735 10.2184 27.8734C10.2582 26.0066 11.8405 24.4921 13.801 24.3873C13.8806 24.3873 13.9602 24.3683 14.0398 24.3683C16.1296 24.3873 17.8114 26.0256 17.7816 28.0163C17.7517 29.9689 16.0202 31.5881 13.99 31.5691H14Z" fill="white"/>
</svg>
