<svg width="24" height="24" viewBox="0 0 24 24" fill="none" xmlns="http://www.w3.org/2000/svg">
<g clip-path="url(#clip0_2387_34542)">
<rect width="24" height="24" rx="12" fill="#E7E5DC"/>
<path fill-rule="evenodd" clip-rule="evenodd" d="M17.2433 6.16643C16.8528 5.7759 16.2196 5.7759 15.8291 6.16643L11.9208 10.0747L8.1709 6.3248C7.78037 5.93428 7.14721 5.93428 6.75668 6.3248L6.32474 6.75674C5.93422 7.14727 5.93422 7.78043 6.32474 8.17096L10.0746 11.9209L6.16637 15.8291C5.77584 16.2197 5.77584 16.8528 6.16637 17.2434L6.59831 17.6753C6.98883 18.0658 7.622 18.0658 8.01252 17.6753L11.9208 13.767L15.9875 17.8337C16.378 18.2242 17.0111 18.2242 17.4017 17.8337L17.8336 17.4017C18.2241 17.0112 18.2241 16.378 17.8336 15.9875L13.767 11.9209L17.6752 8.01258C18.0658 7.62206 18.0658 6.98889 17.6752 6.59837L17.2433 6.16643Z" fill="#333333"/>
<mask id="mask0_2387_34542" style="mask-type:luminance" maskUnits="userSpaceOnUse" x="0" y="0" width="24" height="24">
<path fill-rule="evenodd" clip-rule="evenodd" d="M24 12C24 18.6274 18.6274 24 12 24C5.37258 24 0 18.6274 0 12C0 5.37258 5.37258 0 12 0C18.6274 0 24 5.37258 24 12ZM15.8291 6.16638C16.2196 5.77586 16.8528 5.77586 17.2433 6.16638L17.6752 6.59832C18.0658 6.98884 18.0658 7.62201 17.6752 8.01253L13.767 11.9208L17.8336 15.9875C18.2241 16.378 18.2241 17.0112 17.8336 17.4017L17.4017 17.8336C17.0112 18.2241 16.378 18.2241 15.9875 17.8336L11.9208 13.767L8.01253 17.6752C7.62201 18.0658 6.98885 18.0658 6.59832 17.6752L6.16638 17.2433C5.77586 16.8528 5.77586 16.2196 6.16638 15.8291L10.0747 11.9208L6.32476 8.17091C5.93423 7.78039 5.93423 7.14722 6.32476 6.7567L6.7567 6.32476C7.14722 5.93423 7.78039 5.93423 8.17091 6.32476L11.9208 10.0747L15.8291 6.16638Z" fill="white"/>
</mask>
<g mask="url(#mask0_2387_34542)">
</g>
</g>
<defs>
<clipPath id="clip0_2387_34542">
<rect width="24" height="24" rx="12" fill="white"/>
</clipPath>
</defs>
</svg>
