<svg width="13" height="13" viewBox="0 0 13 13" fill="none" xmlns="http://www.w3.org/2000/svg">
<path fill-rule="evenodd" clip-rule="evenodd" d="M4.32843 6.44975L0.43934 10.3388C-0.146447 10.9246 -0.146447 11.8744 0.43934 12.4602C1.02513 13.0459 1.97487 13.0459 2.56066 12.4602L6.44975 8.57107L10.3891 12.5104C10.9749 13.0962 11.9246 13.0962 12.5104 12.5104C13.0962 11.9246 13.0962 10.9749 12.5104 10.3891L8.57107 6.44975L12.4602 2.56066C13.0459 1.97487 13.0459 1.02513 12.4602 0.43934C11.8744 -0.146447 10.9246 -0.146447 10.3388 0.43934L6.44975 4.32843L2.61091 0.489592C2.02513 -0.0961945 1.07538 -0.0961945 0.489592 0.489592C-0.096194 1.07538 -0.096194 2.02513 0.489592 2.61091L4.32843 6.44975Z" fill="#302100"/>
</svg>
