<svg width="22" height="24" viewBox="0 0 22 24" fill="none" xmlns="http://www.w3.org/2000/svg">
<path fill-rule="evenodd" clip-rule="evenodd" d="M13.0246 19.8593L2.49641 13.7809L2.79053 13.2715L13.3187 19.3499L13.0246 19.8593Z" fill="#333333"/>
<path fill-rule="evenodd" clip-rule="evenodd" d="M18.0679 5.33726C17.0189 6.59625 15.1857 6.95618 13.7182 6.10891C12.2507 5.26165 11.6458 3.49408 12.2116 1.95611L11.404 1.48982C10.7475 1.1108 9.90805 1.33573 9.52903 1.99221L1.48982 15.9165C1.1108 16.573 1.33573 17.4125 1.99221 17.7915L9.63361 22.2032C10.2901 22.5823 11.1295 22.3573 11.5085 21.7009L19.5478 7.77652C19.9268 7.12004 19.7019 6.2806 19.0454 5.90158L18.0679 5.33726ZM19.3395 5.39216L18.4055 4.85294L17.9586 4.59489L17.8961 4.55882C17.111 5.91868 15.3722 6.3846 14.0123 5.59948C12.6525 4.81437 12.1865 3.07554 12.9717 1.71569L12.9092 1.67962L12.4622 1.42157L11.6981 0.980392C10.7603 0.438937 9.56106 0.76026 9.01961 1.69809L0.980392 15.6224C0.438936 16.5602 0.76026 17.7594 1.69809 18.3009L9.33949 22.7127C10.2773 23.2541 11.4765 22.9328 12.018 21.995L20.0572 8.07064C20.5986 7.13281 20.2773 5.93361 19.3395 5.39216Z" fill="#333333"/>
</svg>
