<svg width="19" height="19" viewBox="0 0 19 19" fill="none" xmlns="http://www.w3.org/2000/svg">
<path d="M0.311919 6.30896H4.25062V19H0.311919V6.30896ZM2.28293 4.57383C3.54052 4.57383 4.56585 3.55003 4.56585 2.28691C4.56585 1.98659 4.5068 1.68921 4.39207 1.41175C4.27734 1.13429 4.10918 0.882181 3.8972 0.669821C3.68521 0.457462 3.43354 0.289009 3.15656 0.174081C2.87959 0.0591524 2.58272 0 2.28293 0C1.98313 0 1.68627 0.0591524 1.40929 0.174081C1.13232 0.289009 0.880649 0.457462 0.66866 0.669821C0.456671 0.882181 0.288512 1.13429 0.173785 1.41175C0.0590576 1.68921 8.05088e-06 1.98659 8.0572e-06 2.28691C-0.00331014 3.55003 1.01869 4.57383 2.28293 4.57383ZM10.6547 12.721C10.6547 11.0656 10.97 9.46344 13.0173 9.46344C15.0348 9.46344 15.0646 11.3548 15.0646 12.8273V19H19V12.0395C19 8.62246 18.2634 5.99318 14.2782 5.99318C12.3636 5.99318 11.0795 7.04689 10.5519 8.04409H10.4988V6.30896H6.71936V19H10.6547V12.721Z" fill="white"/>
</svg>
