<svg width="24" height="24" viewBox="0 0 24 24" fill="none" xmlns="http://www.w3.org/2000/svg">
<path d="M5.22201 19.02C6.36201 19.02 7.31201 18.25 7.61201 17.21C7.89201 17.09 7.35201 17.4 11.932 14.28C14.142 15.8 15.922 17.05 16.162 17.18C16.442 18.26 17.412 19.06 18.572 19.06C19.952 19.06 21.072 17.94 21.072 16.56C21.072 15.18 19.952 14.06 18.572 14.06C17.762 14.06 17.042 14.46 16.582 15.06L12.932 12.54V9.55997H15.402C15.922 9.55997 16.412 9.30997 16.732 8.89997C17.042 8.48997 17.142 7.96997 17.012 7.47997C16.692 6.35997 16.042 5.40997 15.182 4.71997C14.462 5.79997 13.232 6.50997 11.842 6.50997C10.452 6.50997 9.22201 5.79997 8.50201 4.71997C7.64201 5.40997 6.99201 6.35997 6.68201 7.47997C6.55201 7.96997 6.65201 8.48997 6.96201 8.89997C7.27201 9.30997 7.77201 9.55997 8.28201 9.55997H10.932V12.54L7.24201 15.07C6.79201 14.44 6.05201 14.02 5.21201 14.02C3.83201 14.02 2.71201 15.14 2.71201 16.52C2.71201 17.9 3.83201 19.02 5.21201 19.02H5.22201Z" fill="#D29E4A"/>
<path d="M11.852 5C13.2327 5 14.352 3.88071 14.352 2.5C14.352 1.11929 13.2327 0 11.852 0C10.4713 0 9.35201 1.11929 9.35201 2.5C9.35201 3.88071 10.4713 5 11.852 5Z" fill="#D29E4A"/>
<path d="M23.742 21.49C23.432 20.38 22.792 19.42 21.932 18.73C21.222 19.83 19.982 20.55 18.582 20.55C17.182 20.55 15.942 19.83 15.232 18.73C14.372 19.42 13.732 20.38 13.422 21.49C13.282 21.98 13.392 22.5 13.702 22.91C14.012 23.32 14.512 23.56 15.022 23.56H22.142C22.662 23.56 23.152 23.32 23.472 22.91C23.782 22.5 23.882 21.98 23.742 21.49Z" fill="#D29E4A"/>
<path d="M8.56202 18.73C7.84202 19.81 6.61202 20.52 5.22202 20.52C3.83202 20.52 2.60202 19.81 1.88202 18.73C1.02202 19.42 0.372015 20.37 0.0620155 21.49C-0.0779845 21.98 0.0220155 22.5 0.332015 22.91C0.652015 23.32 1.14202 23.57 1.66202 23.57H8.78201C9.29202 23.57 9.79202 23.32 10.102 22.91C10.412 22.5 10.522 21.98 10.382 21.49C10.072 20.37 9.42202 19.42 8.56202 18.73Z" fill="#D29E4A"/>
</svg>
