<svg width="79" height="85" viewBox="0 0 79 85" fill="none" xmlns="http://www.w3.org/2000/svg">
<path d="M67.0395 8.97624H61.5662V5.02341C61.5662 2.70886 59.5858 0.803894 57.1576 0.803894C54.7294 0.803894 52.7491 2.69934 52.7491 5.02341V8.97624H26.9546V5.02341C26.9546 2.70886 24.9743 0.803894 22.5461 0.803894C20.1179 0.803894 18.1376 2.69934 18.1376 5.02341V8.97624H12.5249C6.14594 8.97624 0.961182 13.9387 0.961182 20.0441V73.0596C0.961182 79.165 6.14594 84.1275 12.5249 84.1275H67.0296C73.4085 84.1275 78.5933 79.165 78.5933 73.0596V20.0441C78.5933 13.9387 73.4085 8.97624 67.0296 8.97624H67.0395ZM12.5348 14.6912H67.0395C70.1245 14.6912 72.6323 17.0914 72.6323 20.0441V27.3021H6.95201V20.0441C6.95201 17.0914 9.45981 14.6912 12.5448 14.6912H12.5348ZM67.0395 78.403H12.5348C9.44985 78.403 6.94206 76.0028 6.94206 73.05V33.0075H72.6223V73.05C72.6223 76.0028 70.1145 78.403 67.0296 78.403H67.0395Z" fill="white"/>
<path d="M25.8698 42.3417H19.3117C18.5422 42.3417 17.9185 42.9388 17.9185 43.6752V49.4378C17.9185 50.1742 18.5422 50.7712 19.3117 50.7712H25.8698C26.6392 50.7712 27.263 50.1742 27.263 49.4378V43.6752C27.263 42.9388 26.6392 42.3417 25.8698 42.3417Z" fill="white"/>
<path d="M43.2458 42.3417H36.6878C35.9183 42.3417 35.2946 42.9388 35.2946 43.6752V49.4378C35.2946 50.1742 35.9183 50.7712 36.6878 50.7712H43.2458C44.0153 50.7712 44.6391 50.1742 44.6391 49.4378V43.6752C44.6391 42.9388 44.0153 42.3417 43.2458 42.3417Z" fill="white"/>
<path d="M60.4419 42.3417H53.8838C53.1144 42.3417 52.4906 42.9388 52.4906 43.6752V49.4378C52.4906 50.1742 53.1144 50.7712 53.8838 50.7712H60.4419C61.2113 50.7712 61.8351 50.1742 61.8351 49.4378V43.6752C61.8351 42.9388 61.2113 42.3417 60.4419 42.3417Z" fill="white"/>
<path d="M25.9587 58.9628H19.4007C18.6312 58.9628 18.0074 59.5598 18.0074 60.2963V66.0589C18.0074 66.7953 18.6312 67.3923 19.4007 67.3923H25.9587C26.7282 67.3923 27.352 66.7953 27.352 66.0589V60.2963C27.352 59.5598 26.7282 58.9628 25.9587 58.9628Z" fill="white"/>
<path d="M43.3348 58.9628H36.7768C36.0073 58.9628 35.3835 59.5598 35.3835 60.2963V66.0589C35.3835 66.7953 36.0073 67.3923 36.7768 67.3923H43.3348C44.1043 67.3923 44.7281 66.7953 44.7281 66.0589V60.2963C44.7281 59.5598 44.1043 58.9628 43.3348 58.9628Z" fill="white"/>
<path d="M60.5319 58.9628H53.9738C53.2043 58.9628 52.5806 59.5598 52.5806 60.2963V66.0589C52.5806 66.7953 53.2043 67.3923 53.9738 67.3923H60.5319C61.3013 67.3923 61.9251 66.7953 61.9251 66.0589V60.2963C61.9251 59.5598 61.3013 58.9628 60.5319 58.9628Z" fill="white"/>
</svg>
