<svg width="12" height="12" viewBox="0 0 12 12" fill="none" xmlns="http://www.w3.org/2000/svg">
<g clip-path="url(#clip0_2387_34723)">
<path d="M11.424 4.80003C11.616 4.46403 11.472 3.98403 11.136 3.84003L10.176 3.45603C9.93597 3.36003 9.79197 3.12003 9.79197 2.88003L9.69597 1.87203C9.64797 1.44003 9.26397 1.20003 8.87997 1.24803L7.82397 1.44003C7.58397 1.48803 7.34397 1.39203 7.15197 1.20003L6.52797 0.480027C6.23997 0.144027 5.75997 0.144027 5.47197 0.480027L4.79997 1.24803C4.65597 1.44003 4.41597 1.53603 4.17597 1.44003L3.16797 1.24803C2.73597 1.15203 2.35197 1.44003 2.35197 1.82403L2.25597 2.83203C2.20797 3.07203 2.06397 3.31203 1.82397 3.40803L0.863973 3.79203C0.479973 3.93603 0.335973 4.41603 0.527973 4.75203L1.05597 5.61603C1.19997 5.80803 1.19997 6.09603 1.05597 6.28803L0.527973 7.15203C0.335973 7.48803 0.479973 7.96803 0.863973 8.11203L1.82397 8.49603C2.06397 8.59203 2.20797 8.83203 2.25597 9.07203L2.35197 10.08C2.39997 10.512 2.78397 10.752 3.16797 10.704L4.17597 10.56C4.41597 10.512 4.65597 10.56 4.84797 10.8L5.51997 11.568C5.80797 11.856 6.28797 11.856 6.52797 11.568L7.19997 10.8C7.34397 10.608 7.63197 10.512 7.87197 10.56L8.87997 10.8C9.26397 10.896 9.64797 10.608 9.69597 10.176L9.79197 9.16803C9.83997 8.92803 9.98397 8.68803 10.176 8.59203L11.136 8.20803C11.52 8.06403 11.664 7.58403 11.424 7.24803L10.896 6.38403C10.752 6.14403 10.752 5.90403 10.896 5.71203L11.424 4.80003ZM3.35997 4.46403C3.31197 3.93603 3.69597 3.45603 4.17597 3.40803C4.70397 3.36003 5.18397 3.69603 5.23197 4.22403C5.32797 4.75203 4.94397 5.23203 4.41597 5.32803C3.93597 5.37603 3.45597 4.99203 3.35997 4.46403ZM5.27997 8.49603C5.13597 8.73603 4.84797 8.83203 4.60797 8.68803C4.36797 8.54403 4.27197 8.25603 4.41597 8.01603L6.91197 3.50403C7.05597 3.26403 7.34397 3.16803 7.53597 3.31203C7.77597 3.45603 7.87197 3.74403 7.72797 3.98403L5.27997 8.49603ZM7.96797 8.78403C7.43997 8.83203 6.95997 8.49603 6.86397 7.96803C6.81597 7.44003 7.15197 6.96003 7.67997 6.91203C8.20797 6.86403 8.68797 7.20003 8.78397 7.72803C8.83197 8.25603 8.44797 8.73603 7.96797 8.78403Z" fill="#333333"/>
</g>
<defs>
<clipPath id="clip0_2387_34723">
<rect width="12" height="12" fill="white"/>
</clipPath>
</defs>
</svg>
