<svg width="28" height="19" viewBox="0 0 28 19" fill="none" xmlns="http://www.w3.org/2000/svg">
<path d="M27.4156 2.96799C27.2562 2.39327 26.9437 1.86915 26.5094 1.4481C26.075 1.02705 25.5341 0.723831 24.9406 0.56879C22.7562 1.15413e-07 14 0 14 0C14 0 5.24375 -1.15413e-07 3.05937 0.565764C2.46569 0.720303 1.92445 1.02335 1.49002 1.44448C1.05558 1.86561 0.743248 2.38999 0.584375 2.96497C-1.19209e-07 5.0828 0 9.5 0 9.5C0 9.5 -1.19209e-07 13.9172 0.584375 16.032C0.90625 17.1998 1.85625 18.1196 3.05937 18.4312C5.24375 19 14 19 14 19C14 19 22.7562 19 24.9406 18.4312C26.1469 18.1196 27.0938 17.1998 27.4156 16.032C28 13.9172 28 9.5 28 9.5C28 9.5 28 5.0828 27.4156 2.96799ZM11.2188 13.5541V5.44586L18.4688 9.46975L11.2188 13.5541Z" fill="white"/>
</svg>
