<svg width="66" height="92" viewBox="0 0 66 92" fill="none" xmlns="http://www.w3.org/2000/svg">
<path d="M31.8905 68.8393H34.1794C45.5639 68.8393 54.8189 59.9716 54.8189 49.0847V19.9862C54.8189 9.08976 45.554 0.231628 34.1794 0.231628H31.8905C20.5059 0.231628 11.251 9.09928 11.251 19.9862V49.0847C11.251 59.9811 20.5159 68.8393 31.8905 68.8393ZM17.212 37.3882H25.5713C27.2232 37.3882 28.5567 36.1118 28.5567 34.5307C28.5567 32.9496 27.2232 31.6732 25.5713 31.6732H17.212V26.2822H25.5713C27.2232 26.2822 28.5567 25.0058 28.5567 23.4247C28.5567 21.8436 27.2232 20.5672 25.5713 20.5672H17.212V19.9767C17.212 12.233 23.7899 5.93703 31.8806 5.93703H34.1694C42.26 5.93703 48.838 12.233 48.838 19.9767V49.0752C48.838 56.8189 42.26 63.1148 34.1694 63.1148H31.8806C23.7899 63.1148 17.212 56.8189 17.212 49.0752V37.3786V37.3882Z" fill="white"/>
<path d="M62.6797 39.2742C61.0277 39.2742 59.6942 40.5505 59.6942 42.1316V52.0185C59.6942 63.6007 48.6778 73.0208 35.1338 73.0208H30.765C17.221 73.0208 6.20458 63.6007 6.20458 52.0185V40.3695C6.20458 38.7884 4.87107 37.5121 3.21911 37.5121C1.56715 37.5121 0.233643 38.7884 0.233643 40.3695V52.0185C0.233643 66.5344 13.5389 78.3833 30.0485 78.7167V86.0318H14.5042C12.8522 86.0318 11.5187 87.3081 11.5187 88.8892C11.5187 90.4704 12.8522 91.7467 14.5042 91.7467H50.5786C52.2305 91.7467 53.564 90.4704 53.564 88.8892C53.564 87.3081 52.2305 86.0318 50.5786 86.0318H36.0095V78.7167C52.4296 78.3071 65.6552 66.4963 65.6552 52.0185V42.1316C65.6552 40.5505 64.3217 39.2742 62.6697 39.2742H62.6797Z" fill="white"/>
</svg>
