<svg width="13" height="13" viewBox="0 0 13 13" fill="none" xmlns="http://www.w3.org/2000/svg">
<path fill-rule="evenodd" clip-rule="evenodd" d="M3.72591 0.554555C4.36611 0.525755 4.57011 0.518555 6.19971 0.518555C7.82931 0.518555 8.03331 0.525755 8.67351 0.554555C9.31191 0.583955 9.74811 0.685355 10.1297 0.833555C10.5245 0.987155 10.8593 1.19175 11.1929 1.52535C11.5265 1.85895 11.7311 2.19375 11.8847 2.58855C12.0329 2.97015 12.1343 3.40635 12.1637 4.04475C12.1925 4.68495 12.1997 4.88895 12.1997 6.51855C12.1997 8.14816 12.1925 8.35216 12.1637 8.99236C12.1343 9.63076 12.0329 10.067 11.8847 10.4486C11.7311 10.8434 11.5265 11.1782 11.1929 11.5118C10.8593 11.8454 10.5245 12.05 10.1297 12.2036C9.74811 12.3518 9.31191 12.4532 8.67351 12.4826C8.03331 12.512 7.82931 12.5186 6.19971 12.5186C4.57011 12.5186 4.36611 12.512 3.72591 12.4826C3.08751 12.4532 2.65131 12.3518 2.26971 12.2036C1.87491 12.05 1.54011 11.8454 1.20651 11.5118C0.872907 11.1782 0.668307 10.8434 0.514707 10.4486C0.366507 10.067 0.265107 9.63076 0.235707 8.99236C0.206307 8.35216 0.199707 8.14816 0.199707 6.51855C0.199707 4.88895 0.206307 4.68495 0.235707 4.04475C0.265107 3.40635 0.366507 2.97015 0.514707 2.58855C0.668307 2.19375 0.872907 1.85895 1.20651 1.52535C1.54011 1.19175 1.87491 0.987155 2.26971 0.833555C2.65131 0.685355 3.08751 0.583955 3.72591 0.554555ZM8.62416 1.63457C7.99116 1.60577 7.80156 1.59977 6.19956 1.59977C4.59756 1.59977 4.40796 1.60577 3.77496 1.63457C3.18996 1.66157 2.87256 1.75877 2.66076 1.84097C2.38116 1.95017 2.18076 2.08037 1.97076 2.28977C1.76136 2.49977 1.63116 2.70017 1.52196 2.97977C1.43976 3.19157 1.34256 3.50897 1.31556 4.09397C1.28676 4.72697 1.28076 4.91657 1.28076 6.51857C1.28076 8.12057 1.28676 8.31017 1.31556 8.94318C1.34256 9.52818 1.43976 9.84557 1.52196 10.0574C1.63116 10.337 1.76136 10.5374 1.97076 10.7474C2.18076 10.9568 2.38116 11.087 2.66076 11.1962C2.87256 11.2784 3.18996 11.3756 3.77496 11.4026C4.40736 11.4314 4.59756 11.4374 6.19956 11.4374C7.80156 11.4374 7.99176 11.4314 8.62416 11.4026C9.20916 11.3756 9.52656 11.2784 9.73836 11.1962C10.018 11.087 10.2184 10.9568 10.4284 10.7474C10.6378 10.5374 10.768 10.337 10.8772 10.0574C10.9594 9.84557 11.0566 9.52818 11.0836 8.94318C11.1124 8.31017 11.1184 8.12057 11.1184 6.51857C11.1184 4.91657 11.1124 4.72697 11.0836 4.09397C11.0566 3.50897 10.9594 3.19157 10.8772 2.97977C10.768 2.70017 10.6378 2.49977 10.4284 2.28977C10.2184 2.08037 10.018 1.95017 9.73836 1.84097C9.52656 1.75877 9.20916 1.66157 8.62416 1.63457ZM3.11853 6.51873C3.11853 4.81713 4.49793 3.43773 6.19953 3.43773C7.90113 3.43773 9.28053 4.81713 9.28053 6.51873C9.28053 8.22033 7.90113 9.59973 6.19953 9.59973C4.49793 9.59973 3.11853 8.22033 3.11853 6.51873ZM4.19991 6.51877C4.19991 7.62337 5.09511 8.51857 6.19971 8.51857C7.30432 8.51857 8.19951 7.62337 8.19951 6.51877C8.19951 5.41417 7.30432 4.51837 6.19971 4.51837C5.09511 4.51837 4.19991 5.41417 4.19991 6.51877ZM9.58174 4.17129C9.95453 4.17129 10.2567 3.86908 10.2567 3.49629C10.2567 3.1235 9.95453 2.82129 9.58174 2.82129C9.20895 2.82129 8.90674 3.1235 8.90674 3.49629C8.90674 3.86908 9.20895 4.17129 9.58174 4.17129Z" fill="#333333"/>
</svg>
