<svg width="22" height="22" viewBox="0 0 22 22" fill="none" xmlns="http://www.w3.org/2000/svg">
<path d="M11.4192 1.98242L20.0192 10.5824C18.7392 11.7824 17.0692 12.2924 15.4492 12.1624L9.83921 6.55242C9.70921 4.93242 10.2192 3.26242 11.4192 1.98242Z" fill="#242424"/>
<path d="M21.2693 9.01242L12.9893 0.732422C15.3093 -0.517578 18.2593 -0.167578 20.2093 1.78242C22.1693 3.74242 22.5193 6.70242 21.2693 9.01242Z" fill="#242424"/>
<path d="M8.61922 8.16211L0.549218 18.0421C-0.240782 19.0121 -0.170782 20.4121 0.709218 21.2821C1.58922 22.1721 2.98922 22.2421 3.95922 21.4521L13.8392 13.3921L8.61922 8.16211ZM7.57922 15.8321C7.18922 16.2221 6.55922 16.2221 6.16922 15.8321C5.77922 15.4421 5.77922 14.8121 6.16922 14.4221L7.36922 13.2121C7.75922 12.8221 8.39922 12.8221 8.78922 13.2121C9.17922 13.6021 9.17922 14.2321 8.78922 14.6321L7.57922 15.8321Z" fill="#242424"/>
</svg>
