<svg width="24" height="13" viewBox="0 0 24 13" fill="none" xmlns="http://www.w3.org/2000/svg">
<path fill-rule="evenodd" clip-rule="evenodd" d="M3.34108 0.273107C3.55945 0.592729 3.52372 1.06768 3.2582 1.33346C1.97835 2.61475 1.24437 4.49791 1.24437 6.50007C1.24437 8.50209 1.97835 10.3853 3.2582 11.6665C3.523 11.9316 3.56018 12.4064 3.34108 12.7269C3.1221 13.0474 2.72983 13.0923 2.46504 12.8272C0.898521 11.2588 0 8.95262 0 6.50007C0 4.04753 0.898521 1.74134 2.46504 0.172793C2.72983 -0.0922593 3.1221 -0.0473975 3.34108 0.273107ZM20.6589 0.273107C20.8779 -0.0473975 21.2702 -0.0922593 21.535 0.172793C23.1015 1.74134 24 4.04753 24 6.50007C24 8.95262 23.1015 11.2588 21.535 12.8272C21.2702 13.0923 20.8779 13.0474 20.6589 12.7269C20.4398 12.4064 20.477 11.9316 20.7418 11.6665C22.0217 10.3853 22.7556 8.50209 22.7556 6.50007C22.7556 4.49791 22.0217 2.61475 20.7418 1.33346C20.4763 1.06768 20.4405 0.592729 20.6589 0.273107ZM7.07382 2.12823C7.29219 2.36498 7.25646 2.7168 6.99094 2.91368C5.71109 3.86278 4.9771 5.25771 4.9771 6.7408C4.9771 8.22377 5.71109 9.61871 6.99094 10.5678C7.25573 10.7641 7.29292 11.1158 7.07382 11.3533C6.85484 11.5907 6.46257 11.6239 6.19778 11.4276C4.63126 10.2658 3.73274 8.55749 3.73274 6.7408C3.73274 4.9241 4.63126 3.21581 6.19778 2.05392C6.46257 1.85759 6.85484 1.89082 7.07382 2.12823ZM16.9262 2.12823C17.1452 1.89082 17.5374 1.85759 17.8022 2.05392C19.3687 3.21581 20.2673 4.9241 20.2673 6.7408C20.2673 8.55749 19.3687 10.2658 17.8022 11.4276C17.5374 11.6239 17.1452 11.5907 16.9262 11.3533C16.7071 11.1158 16.7443 10.7641 17.0091 10.5678C18.2889 9.61871 19.0229 8.22377 19.0229 6.7408C19.0229 5.25771 18.2889 3.86278 17.0091 2.91368C16.7435 2.7168 16.7078 2.36498 16.9262 2.12823ZM12 3.12C14.1151 3.12 15.8298 4.77878 15.8298 6.825C15.8298 8.87121 14.1151 10.53 12 10.53C9.88487 10.53 8.17021 8.87121 8.17021 6.825C8.17021 4.77878 9.88487 3.12 12 3.12Z" fill="#ED1E79"/>
</svg>
