<svg width="17" height="17" viewBox="0 0 17 17" fill="none" xmlns="http://www.w3.org/2000/svg">
<path d="M14.3638 0.484131H2.70822C1.60531 0.484131 0.704712 1.38473 0.704712 2.49417V14.1432C0.704712 15.2527 1.60531 16.1468 2.70822 16.1468H14.3638C15.4667 16.1468 16.3673 15.2527 16.3673 14.1432V2.49417C16.3673 1.38473 15.4667 0.484131 14.3638 0.484131ZM7.88342 2.44196H9.18864V3.74718H7.88342V2.44196ZM3.96776 14.1889H2.66254V12.8837H3.96776V14.1889ZM3.96776 3.74718H2.66254V2.44196H3.96776V3.74718ZM6.5782 14.1889H5.27298V12.8837H6.5782V14.1889ZM6.5782 3.74718H5.27298V2.44196H6.5782V3.74718ZM6.89798 10.1166V6.39677C6.89798 5.76374 7.62237 5.39175 8.13793 5.77027L10.6896 7.63021C11.1138 7.93693 11.1138 8.56996 10.6896 8.88321L8.13793 10.7497C7.62237 11.1217 6.89798 10.7562 6.89798 10.1166ZM9.18864 14.1889H7.88342V12.8837H9.18864V14.1889ZM11.7991 14.1889H10.4939V12.8837H11.7991V14.1889ZM11.7991 3.74718H10.4939V2.44196H11.7991V3.74718ZM14.4095 14.1889H13.1043V12.8837H14.4095V14.1889ZM14.4095 3.74718H13.1043V2.44196H14.4095V3.74718Z" fill="white"/>
</svg>
