<svg width="20" height="20" viewBox="0 0 20 20" fill="none" xmlns="http://www.w3.org/2000/svg">
<path d="M16.2335 19.9938C15.65 19.9938 15.0889 19.8615 14.5645 19.5993C13.6697 19.1523 13.0022 18.3831 12.6859 17.4342C12.417 16.6277 12.432 15.757 12.7266 14.9596L6.88915 12.0404C6.52623 12.5989 6.01099 13.0617 5.42083 13.3564C4.89476 13.6194 4.3329 13.7526 3.75107 13.7526C3.3482 13.7526 2.94782 13.6868 2.5616 13.5578C1.61268 13.2407 0.843561 12.5731 0.396572 11.6783C-0.0504171 10.7835 -0.122002 9.76717 0.194303 8.81825C0.51144 7.86934 1.17901 7.10021 2.07382 6.65323C2.59656 6.39186 3.15675 6.25951 3.73858 6.25951C5.01213 6.25951 6.2016 6.91043 6.88832 7.97089L12.7241 5.05339C12.571 4.63553 12.4902 4.18688 12.4919 3.74488C12.4969 1.67975 14.1808 0 16.2459 0C17.2581 0.00249714 18.1995 0.395381 18.9071 1.10624C19.6146 1.81709 20.0025 2.76101 20 3.7632C19.9975 4.76538 19.6046 5.70764 18.8938 6.41516C18.1854 7.12019 17.2456 7.50808 16.2459 7.50808C14.9466 7.50642 13.7854 6.87131 13.0962 5.79837L7.26538 8.71337C7.57253 9.54409 7.57253 10.4664 7.26538 11.2971L13.0962 14.2121C13.7863 13.1391 14.9466 12.5032 16.2376 12.5024C16.2376 12.5024 16.2401 12.5024 16.241 12.5024C16.8186 12.5024 17.398 12.6389 17.9149 12.8978C19.7628 13.8209 20.5144 16.0758 19.5913 17.9228C18.9512 19.2005 17.6652 19.9938 16.2335 19.9938ZM13.6289 14.9546C13.2843 15.6488 13.2302 16.4354 13.475 17.1704C13.7213 17.9087 14.2407 18.5063 14.9366 18.8543C15.3445 19.0574 15.7806 19.1606 16.2335 19.1606C17.348 19.1606 18.3485 18.5438 18.8446 17.5499C19.1917 16.8549 19.2475 16.0658 19.0011 15.3266C18.7547 14.5875 18.2362 13.989 17.5411 13.6419C17.1391 13.4413 16.6888 13.3348 16.2393 13.3348L16.2368 13.1267V13.3348C15.1264 13.3356 14.1292 13.9532 13.6331 14.9471C13.6323 14.9496 13.6306 14.9521 13.6289 14.9546ZM3.74191 7.09189C3.2891 7.09189 2.85293 7.19511 2.4459 7.39821C1.74919 7.74614 1.23062 8.34379 0.984233 9.08211C0.737848 9.82044 0.793618 10.6104 1.14072 11.3062C1.48866 12.0021 2.08631 12.5215 2.82463 12.7679C3.12595 12.8686 3.43726 12.9194 3.75024 12.9194C4.20222 12.9194 4.63922 12.8153 5.04875 12.6106C5.60978 12.3301 6.07341 11.8664 6.35393 11.3062C6.35559 11.3037 6.35642 11.3004 6.35809 11.2979C6.76596 10.4847 6.76512 9.51662 6.35476 8.70505C5.85699 7.70952 4.85647 7.09189 3.74191 7.09189ZM16.2451 0.833214C14.6378 0.833214 13.3276 2.14089 13.3235 3.74738C13.3226 4.20186 13.4292 4.65717 13.6331 5.06421C14.1292 6.05807 15.1272 6.6757 16.2368 6.67653C17.0226 6.67653 17.7542 6.37438 18.3053 5.82584C18.8588 5.27563 19.1643 4.54231 19.1659 3.76236C19.1676 2.98242 18.8655 2.24743 18.3153 1.69473C17.765 1.1412 17.0317 0.835711 16.2518 0.834046L16.2443 0.625951V0.833214H16.2451Z" fill="white"/>
</svg>
