<svg width="19" height="22" viewBox="0 0 19 22" fill="none" xmlns="http://www.w3.org/2000/svg">
<path d="M0.00537109 18.6061C0.00537109 20.108 1.22227 21.3369 2.7096 21.3369H17.2403C17.7361 21.3369 18.1417 20.9273 18.1417 20.4266V1.72042C18.1417 0.773736 17.3755 0 16.4291 0H1.70904C0.771569 0 0.00537109 0.773736 0.00537109 1.72042V18.6061ZM3.62904 4.09625C3.62904 3.5956 4.03467 3.18597 4.53045 3.18597H13.6167C14.1124 3.18597 14.5181 3.5956 14.5181 4.09625V7.99223C14.5181 8.49289 14.1124 8.90251 13.6167 8.90251H4.53045C4.03467 8.90251 3.62904 8.49289 3.62904 7.99223V4.09625ZM2.7096 17.6958H16.3389V19.5163H2.7096C2.26791 19.5163 1.80819 19.134 1.80819 18.6061C1.80819 18.1054 2.21382 17.6958 2.7096 17.6958Z" fill="white"/>
</svg>
