<svg width="264" height="260" xmlns="http://www.w3.org/2000/svg"><defs><linearGradient x1="50%" y1="0%" x2="50%" y2="100%" id="a"><stop stop-color="#FFF" offset="0%"/><stop stop-color="#FFF" offset="100%"/></linearGradient></defs><path d="M187 47c.169 0 .336.007.5.02a6.37 6.37 0 01.5-.02h57.395a6 6 0 014.898 2.535l63.605 89.908a6 6 0 011.102 3.465V301a6 6 0 01-6 6H188a6.08 6.08 0 01-.5-.02 6.33 6.33 0 01-.5.02H57a6 6 0 01-6-6V53a6 6 0 016-6h130z" transform="translate(-51 -47)" fill="url(#a)" fill-rule="evenodd"/></svg>